<mxfile host="app.diagrams.net" modified="2023-11-07T07:42:30.077Z" agent="Mozilla/5.0 (Windows NT 10.0; Win64; x64) AppleWebKit/537.36 (KHTML, like Gecko) Chrome/119.0.0.0 Safari/537.36" etag="R-V0vUA0kfD0XbW2-Ka4" version="22.0.8" type="device">
  <diagram name="Halaman-1" id="ZJbhKis3d4PmC33WaOrM">
    <mxGraphModel dx="1114" dy="610" grid="1" gridSize="10" guides="1" tooltips="1" connect="1" arrows="1" fold="1" page="1" pageScale="1" pageWidth="827" pageHeight="1169" math="0" shadow="0">
      <root>
        <mxCell id="0" />
        <mxCell id="1" parent="0" />
        <mxCell id="xgbwTimZbLC3Jn_fxnEy-1" value="menkonfirmasi keinginan user&lt;br&gt;" style="shape=parallelogram;perimeter=parallelogramPerimeter;whiteSpace=wrap;html=1;fixedSize=1;" vertex="1" parent="1">
          <mxGeometry x="340" y="130" width="120" height="60" as="geometry" />
        </mxCell>
        <mxCell id="xgbwTimZbLC3Jn_fxnEy-5" value="suka tipe kuah&amp;nbsp;&lt;br&gt;atau kering" style="rhombus;whiteSpace=wrap;html=1;" vertex="1" parent="1">
          <mxGeometry x="345" y="260" width="110" height="120" as="geometry" />
        </mxCell>
        <mxCell id="xgbwTimZbLC3Jn_fxnEy-7" value="indomie soto" style="shape=parallelogram;perimeter=parallelogramPerimeter;whiteSpace=wrap;html=1;fixedSize=1;" vertex="1" parent="1">
          <mxGeometry x="335" y="470" width="120" height="60" as="geometry" />
        </mxCell>
        <mxCell id="xgbwTimZbLC3Jn_fxnEy-8" value="indomie goreng" style="shape=parallelogram;perimeter=parallelogramPerimeter;whiteSpace=wrap;html=1;fixedSize=1;" vertex="1" parent="1">
          <mxGeometry x="550" y="290" width="120" height="60" as="geometry" />
        </mxCell>
        <mxCell id="xgbwTimZbLC3Jn_fxnEy-17" value="" style="endArrow=none;html=1;rounded=0;" edge="1" parent="1" source="xgbwTimZbLC3Jn_fxnEy-7" target="xgbwTimZbLC3Jn_fxnEy-5">
          <mxGeometry width="50" height="50" relative="1" as="geometry">
            <mxPoint x="390" y="440" as="sourcePoint" />
            <mxPoint x="440" y="390" as="targetPoint" />
          </mxGeometry>
        </mxCell>
        <mxCell id="xgbwTimZbLC3Jn_fxnEy-20" value="" style="endArrow=none;html=1;rounded=0;" edge="1" parent="1" source="xgbwTimZbLC3Jn_fxnEy-5" target="xgbwTimZbLC3Jn_fxnEy-1">
          <mxGeometry width="50" height="50" relative="1" as="geometry">
            <mxPoint x="390" y="440" as="sourcePoint" />
            <mxPoint x="440" y="390" as="targetPoint" />
          </mxGeometry>
        </mxCell>
        <mxCell id="xgbwTimZbLC3Jn_fxnEy-21" value="" style="endArrow=none;html=1;rounded=0;" edge="1" parent="1" source="xgbwTimZbLC3Jn_fxnEy-5" target="xgbwTimZbLC3Jn_fxnEy-8">
          <mxGeometry width="50" height="50" relative="1" as="geometry">
            <mxPoint x="390" y="540" as="sourcePoint" />
            <mxPoint x="440" y="490" as="targetPoint" />
          </mxGeometry>
        </mxCell>
        <mxCell id="xgbwTimZbLC3Jn_fxnEy-22" value="yes" style="text;html=1;strokeColor=none;fillColor=none;align=center;verticalAlign=middle;whiteSpace=wrap;rounded=0;" vertex="1" parent="1">
          <mxGeometry x="380" y="400" width="60" height="30" as="geometry" />
        </mxCell>
        <mxCell id="xgbwTimZbLC3Jn_fxnEy-26" value="no" style="text;html=1;strokeColor=none;fillColor=none;align=center;verticalAlign=middle;whiteSpace=wrap;rounded=0;" vertex="1" parent="1">
          <mxGeometry x="480" y="290" width="60" height="30" as="geometry" />
        </mxCell>
      </root>
    </mxGraphModel>
  </diagram>
</mxfile>
